<svg width="44" height="44" viewBox="0 0 44 44" fill="none" xmlns="http://www.w3.org/2000/svg">
<g clip-path="url(#clip0_53_1665)">
<path fill-rule="evenodd" clip-rule="evenodd" d="M15.6361 15.1636C15.9289 14.8707 16.4038 14.8707 16.6967 15.1636L28.364 26.8309C28.6569 27.1238 28.6569 27.5987 28.364 27.8916C28.0711 28.1844 27.5962 28.1844 27.3033 27.8916L15.6361 16.2243C15.3432 15.9314 15.3432 15.4565 15.6361 15.1636Z" fill="#505458"/>
<path fill-rule="evenodd" clip-rule="evenodd" d="M28.3639 15.1636C28.6568 15.4565 28.6568 15.9314 28.3639 16.2243L16.6967 27.8916C16.4038 28.1844 15.9289 28.1844 15.636 27.8916C15.3431 27.5987 15.3431 27.1238 15.636 26.8309L27.3033 15.1636C27.5962 14.8707 28.0711 14.8707 28.3639 15.1636Z" fill="#505458"/>
</g>
<defs>
<clipPath id="clip0_53_1665">
<rect width="18" height="18" fill="white" transform="translate(22 8.7998) rotate(45)"/>
</clipPath>
</defs>
</svg>
