<svg width="25" height="24" viewBox="0 0 25 24" fill="none" xmlns="http://www.w3.org/2000/svg">
<g clip-path="url(#clip0_78_353)">
<path d="M14.2 13.3599C14.1941 13.6948 14.0894 14.0204 13.8991 14.296C13.7087 14.5716 13.4412 14.7848 13.1301 14.9089C12.819 15.033 12.4781 15.0624 12.1504 14.9935C11.8226 14.9245 11.5225 14.7603 11.2877 14.5214C11.053 14.2825 10.894 13.9796 10.8308 13.6507C10.7676 13.3217 10.803 12.9815 10.9325 12.6726C11.062 12.3637 11.2799 12.0999 11.5588 11.9144C11.8376 11.7289 12.1651 11.6299 12.5 11.6299C12.9545 11.6352 13.3883 11.8201 13.7069 12.1442C14.0254 12.4684 14.2027 12.9054 14.2 13.3599Z" fill="#505458"/>
<path d="M3.25 7.47998V19.24H21.75V7.47998H3.25ZM12.5 17.2C11.7345 17.2179 10.9811 17.0071 10.336 16.5947C9.69096 16.1822 9.18352 15.5868 8.87856 14.8844C8.5736 14.1821 8.48498 13.4048 8.62402 12.6519C8.76307 11.8989 9.12346 11.2046 9.65915 10.6575C10.1948 10.1104 10.8815 9.73547 11.6313 9.5806C12.3812 9.42574 13.1602 9.49798 13.8687 9.78808C14.5773 10.0782 15.1833 10.573 15.6093 11.2092C16.0352 11.8455 16.2618 12.5943 16.26 13.36C16.268 14.367 15.877 15.3363 15.1724 16.0559C14.4678 16.7755 13.507 17.1868 12.5 17.2Z" fill="#505458"/>
<path d="M21.75 6.12012H3.25003C3.0449 6.12794 2.85112 6.21632 2.71072 6.36608C2.57032 6.51584 2.49461 6.71491 2.50003 6.92012V19.2001C2.49461 19.4053 2.57032 19.6044 2.71072 19.7542C2.85112 19.9039 3.0449 19.9923 3.25003 20.0001H21.75C21.852 19.9975 21.9525 19.9747 22.0456 19.933C22.1387 19.8913 22.2226 19.8314 22.2924 19.757C22.3621 19.6826 22.4164 19.595 22.4521 19.4994C22.4877 19.4038 22.504 19.3021 22.5 19.2001V6.92012C22.504 6.81817 22.4877 6.71643 22.4521 6.62083C22.4164 6.52523 22.3621 6.43767 22.2924 6.36324C22.2226 6.2888 22.1387 6.22898 22.0456 6.18724C21.9525 6.14551 21.852 6.12269 21.75 6.12012ZM21 18.4001H4.00003V7.72012H21V18.4001Z" fill="#505458"/>
<path d="M8.50002 4.75H16.28C16.4928 4.75 16.7034 4.7919 16.9 4.87332C17.0965 4.95473 17.2751 5.07406 17.4255 5.22449C17.576 5.37492 17.6953 5.55351 17.7767 5.75005C17.8581 5.9466 17.9 6.15726 17.9 6.37V6.88H6.90002V6.37C6.89999 5.94379 7.06792 5.53474 7.36742 5.2315C7.66692 4.92826 8.07385 4.75526 8.50002 4.75Z" fill="#505458"/>
<path d="M17.89 7.61998H6.88998C6.69106 7.61998 6.5003 7.54096 6.35965 7.40031C6.21899 7.25966 6.13998 7.06889 6.13998 6.86998V6.35998C6.13734 6.04838 6.19643 5.73935 6.31385 5.4507C6.43127 5.16206 6.60468 4.89953 6.82409 4.67826C7.0435 4.457 7.30456 4.28137 7.5922 4.16152C7.87984 4.04167 8.18837 3.97997 8.49998 3.97998H16.29C16.9159 3.97998 17.5162 4.22862 17.9587 4.67121C18.4013 5.11379 18.65 5.71407 18.65 6.33998V6.84998C18.6513 6.95062 18.6326 7.05053 18.595 7.14389C18.5574 7.23726 18.5016 7.32222 18.4309 7.39386C18.3602 7.46549 18.276 7.52237 18.1831 7.56119C18.0903 7.6 17.9906 7.61999 17.89 7.61998ZM7.65998 6.11998H17.11C17.0578 5.94047 16.9486 5.78285 16.7988 5.67098C16.649 5.5591 16.4669 5.49908 16.28 5.49998H8.49998C8.31134 5.49688 8.12692 5.55589 7.97513 5.66793C7.82334 5.77997 7.7126 5.93881 7.65998 6.11998Z" fill="#505458"/>
</g>
<defs>
<clipPath id="clip0_78_353">
<rect width="20" height="16" fill="white" transform="translate(2.5 4)"/>
</clipPath>
</defs>
</svg>
