<svg width="18" height="18" viewBox="0 0 18 18" fill="none" xmlns="http://www.w3.org/2000/svg">
<circle cx="9" cy="9" r="8.5" fill="white" stroke="#747474"/>
<g clip-path="url(#clip0_84_1354)">
<path fill-rule="evenodd" clip-rule="evenodd" d="M5.0556 5.05548C5.24225 4.86884 5.54486 4.86884 5.73151 5.05548L13.1664 12.4904C13.3531 12.6771 13.3531 12.9797 13.1664 13.1663C12.9798 13.353 12.6772 13.353 12.4905 13.1663L5.0556 5.73138C4.86896 5.54474 4.86896 5.24213 5.0556 5.05548Z" fill="#747474"/>
<path fill-rule="evenodd" clip-rule="evenodd" d="M13.1671 5.05548C13.3537 5.24213 13.3537 5.54474 13.1671 5.73138L5.73212 13.1663C5.54547 13.353 5.24286 13.353 5.05621 13.1663C4.86957 12.9797 4.86957 12.6771 5.05621 12.4904L12.4911 5.05548C12.6778 4.86884 12.9804 4.86884 13.1671 5.05548Z" fill="#747474"/>
</g>
<defs>
<clipPath id="clip0_84_1354">
<rect width="11.4705" height="11.4705" fill="white" transform="translate(9.11133 1) rotate(45)"/>
</clipPath>
</defs>
</svg>
