<svg width="33" height="32" viewBox="0 0 33 32" fill="none" xmlns="http://www.w3.org/2000/svg">
<g clip-path="url(#clip0_53_1632)">
<path fill-rule="evenodd" clip-rule="evenodd" d="M7 15.9998C7 15.5396 7.3731 15.1665 7.83333 15.1665H26.1667C26.6269 15.1665 27 15.5396 27 15.9998C27 16.4601 26.6269 16.8332 26.1667 16.8332H7.83333C7.3731 16.8332 7 16.4601 7 15.9998Z" fill="#505458"/>
<path fill-rule="evenodd" clip-rule="evenodd" d="M17 6C17.4602 6 17.8333 6.3731 17.8333 6.83333V25.1667C17.8333 25.6269 17.4602 26 17 26C16.5397 26 16.1666 25.6269 16.1666 25.1667V6.83333C16.1666 6.3731 16.5397 6 17 6Z" fill="#505458"/>
</g>
<defs>
<clipPath id="clip0_53_1632">
<rect width="20" height="20" fill="white" transform="translate(7 6)"/>
</clipPath>
</defs>
</svg>
